<svg width="256" height="297" viewBox="0 0 256 297" fill="none" xmlns="http://www.w3.org/2000/svg">
<path d="M127.818 0C92.6588 0 60.6159 14.3757 37.5805 37.5843C14.3719 60.6197 0 92.6588 0 127.818C0 169.732 20.4357 207.144 51.7846 230.353C57.647 234.708 63.9994 238.722 70.5203 241.959H25.9788H21.4735V246.46V292.013V296.515H25.9788H229.661H234.163V292.013V246.46V241.959H229.661H185.086C210.731 228.972 231.475 207.742 243.689 181.686C246.633 175.278 249.23 168.521 251.135 161.593C254.079 150.855 255.64 139.422 255.64 127.818C255.64 92.6588 241.264 60.6197 218.056 37.5843C195.02 14.3757 162.977 0 127.818 0ZM127.818 4.50154C195.712 4.50154 251.135 59.9243 251.135 127.818C251.135 184.108 213.206 231.738 161.593 246.46H229.661V292.013H25.9788V246.46H94.0434C42.4302 231.738 4.50154 184.108 4.50154 127.818C4.50154 59.9243 59.9243 4.50154 127.818 4.50154Z" fill="#2A176E"/>
<path d="M25.9806 246.462H94.0476C42.4344 231.74 4.50391 184.111 4.50391 127.821C4.50391 59.9273 59.9275 4.50391 127.821 4.50391C195.715 4.50391 251.139 59.9273 251.139 127.821C251.139 184.111 213.208 231.74 161.595 246.462H229.662V292.013H25.9806V246.462Z" fill="#F6F28B"/>
<path d="M127.821 218.056C152.589 218.056 175.104 207.837 191.558 191.556L195.715 195.713C178.222 213.033 154.32 223.771 127.821 223.771V218.056ZM191.558 191.556C207.839 175.102 217.884 152.587 217.884 127.819H223.773C223.773 154.319 213.035 178.22 195.715 195.713L191.558 191.556ZM217.884 127.819C217.884 103.052 207.839 80.536 191.558 64.0821L195.715 59.9254C213.035 77.4184 223.773 101.32 223.773 127.819H217.884ZM191.558 64.0821C175.104 47.8015 152.589 37.7559 127.821 37.7559V31.8672C154.32 31.8672 178.222 42.6056 195.715 59.9254L191.558 64.0821ZM127.821 37.7559C103.054 37.7559 80.5378 47.8015 64.084 64.0821L59.9272 59.9254C77.4203 42.6056 101.322 31.8672 127.821 31.8672V37.7559ZM64.084 64.0821C47.8033 80.536 37.7578 103.052 37.7578 127.819H31.8691C31.8691 101.32 42.6074 77.4184 59.9272 59.9254L64.084 64.0821ZM37.7578 127.819C37.7578 152.587 47.8033 175.276 64.084 191.556L59.9272 195.713C42.6074 178.22 31.8691 154.319 31.8691 127.819H37.7578ZM64.084 191.556C80.5378 207.837 103.054 218.056 127.821 218.056V223.771C101.322 223.771 77.4203 213.033 59.9272 195.713L64.084 191.556Z" fill="#2A176E"/>
<path d="M127.82 220.828C179.087 220.828 220.828 179.087 220.828 127.82C220.828 76.5533 179.087 34.8125 127.82 34.8125C76.5533 34.8125 34.8125 76.5533 34.8125 127.82C34.8125 179.087 76.5533 220.828 127.82 220.828Z" fill="#2A176E"/>
<path d="M107.903 38.4508C91.2763 42.088 76.3813 50.4015 64.4306 61.8326C62.5303 63.5719 60.8055 65.6167 59.4078 67.2018C45.0323 83.3093 36.1992 104.613 36.1992 127.821C36.1992 151.03 45.0323 172.333 59.4078 188.441C60.9263 190.359 62.7 192.079 64.6038 193.983C76.5545 205.414 91.4495 213.555 108.077 217.192C114.25 218.72 121.89 219.423 127.821 219.443C134.559 219.313 141.317 218.751 147.566 217.192C164.193 213.555 179.088 205.414 191.039 193.983C192.895 192.202 194.794 190.144 196.235 188.441C210.61 172.333 219.443 151.03 219.443 127.821C219.443 104.613 210.61 83.3093 196.235 67.2018C194.693 65.3658 192.769 63.3986 191.212 61.8326C179.261 50.4015 164.366 42.088 147.739 38.4508C140.998 36.7933 134.574 36.4697 127.821 36.1992C121 36.2795 114.315 37.1064 107.903 38.4508Z" fill="#F8F5C1"/>
<path d="M98.3771 50.0547C93.7007 57.1558 89.7172 65.989 86.5997 75.8613C80.3645 73.6097 74.8222 70.8385 70.4922 67.5477C78.4593 60.1002 87.9852 54.0383 98.3771 50.0547Z" fill="#2A176E"/>
<path d="M124.011 44.6836V82.441C112.926 82.0946 102.707 80.709 93.7012 78.111C97.6847 64.6015 103.4 53.69 109.982 46.5888C114.485 45.5497 119.161 45.03 124.011 44.6836Z" fill="#2A176E"/>
<path d="M161.941 78.111C152.934 80.709 142.716 82.0946 131.631 82.441V44.6836C136.48 45.03 141.157 45.5497 145.66 46.5888C152.242 53.69 157.957 64.6015 161.941 78.111Z" fill="#2A176E"/>
<path d="M185.151 67.5477C180.821 70.8385 175.278 73.6097 169.043 75.8613C165.926 65.989 161.942 57.1558 157.266 50.0547C167.658 54.0383 177.183 60.1002 185.151 67.5477Z" fill="#2A176E"/>
<path d="M65.4693 72.9141C70.6653 76.7244 77.0737 80.1884 84.6944 82.9595C81.4036 95.4298 79.4985 109.286 79.3253 124.008H44.6855C45.5515 104.436 53.3454 86.5968 65.4693 72.9141Z" fill="#2A176E"/>
<path d="M91.7948 85.3867C101.321 88.1579 112.405 89.7166 124.01 90.063V124.01H86.9453C87.1186 110.154 88.8504 96.991 91.7948 85.3867Z" fill="#2A176E"/>
<path d="M131.631 90.063C143.235 89.7166 154.32 88.1579 163.846 85.3867C166.79 96.991 168.522 110.154 168.695 124.01H131.631V90.063Z" fill="#2A176E"/>
<path d="M210.954 124.008H176.314C176.141 109.286 174.236 95.4298 170.945 82.9595C178.566 80.1884 184.974 76.7244 190.17 72.9141C202.294 86.5968 210.088 104.436 210.954 124.008Z" fill="#2A176E"/>
<path d="M44.6855 131.629H79.3253C79.4986 146.351 81.4036 160.207 84.6944 172.677C77.0737 175.448 70.6653 178.912 65.4693 182.722C53.3454 169.04 45.5515 151.2 44.6855 131.629Z" fill="#2A176E"/>
<path d="M70.8379 188.267C75.751 184.731 81.2404 182.315 86.7721 179.953C89.8897 189.825 93.7001 198.485 98.3764 205.587C87.9845 201.603 78.805 195.714 70.8379 188.267Z" fill="#2A176E"/>
<path d="M190.17 182.722C184.974 178.912 178.566 175.448 170.945 172.677C174.236 160.207 176.141 146.351 176.314 131.629H210.954C210.088 151.2 202.294 169.04 190.17 182.722Z" fill="#2A176E"/>
<path d="M157.266 205.587C161.942 198.485 165.752 189.825 168.87 179.953C174.519 182.082 179.779 184.941 184.804 188.267C176.837 195.714 167.658 201.603 157.266 205.587Z" fill="#2A176E"/>
<path d="M91.7948 170.425C101.321 167.481 112.405 165.922 124.01 165.576V131.629H86.9453C87.1186 145.485 88.8504 158.648 91.7948 170.425Z" fill="#2A176E"/>
<path d="M131.631 165.576C143.235 165.922 154.32 167.481 163.846 170.425C166.79 158.648 168.522 145.485 168.695 131.629H131.631V165.576Z" fill="#2A176E"/>
<path d="M161.941 177.702L161.595 177.612C139.827 171.568 115.799 171.199 94.0475 177.596L93.7012 177.702C97.6847 191.038 103.4 201.949 109.982 209.051C115.697 210.263 121.759 210.956 127.821 210.956C133.883 210.956 139.945 210.263 145.661 209.051C152.242 201.949 157.958 191.038 161.941 177.702Z" fill="#2A176E"/>
<path d="M137.866 100.455C138.732 99.0691 142.196 100.108 143.408 99.0691C144.794 98.2031 144.62 94.566 146.179 94.0463C147.738 93.7 149.47 96.8175 151.029 97.164C152.587 97.3371 155.012 94.5659 156.398 95.4319C157.783 96.1247 156.744 99.7618 157.61 100.974C158.649 102.187 162.287 102.187 162.806 103.572C163.153 105.131 159.862 106.863 159.689 108.422C159.515 109.981 162.113 112.579 161.421 113.964C160.555 115.35 157.091 114.311 155.878 115.177C154.493 116.216 154.666 119.853 153.107 120.199C151.721 120.546 149.816 117.428 148.258 117.255C146.699 116.909 144.274 119.68 142.888 118.814C141.503 118.121 142.542 114.484 141.676 113.271C140.637 112.059 137 112.232 136.653 110.673C136.134 109.115 139.424 107.383 139.598 105.824C139.771 104.265 137.173 101.667 137.866 100.455Z" fill="white"/>
<path d="M122.106 140.29C121.413 140.29 120.547 140.117 119.854 140.117C119.854 140.117 121.413 142.542 120.027 145.313C119.681 142.888 118.642 142.888 118.642 142.888C118.295 142.888 117.949 142.888 117.602 142.888C117.602 142.888 117.949 145.14 116.91 147.911C115.87 149.643 115.524 150.509 115.351 152.241C115.697 153.973 116.563 154.319 117.083 155.532C116.217 156.051 115.351 156.571 114.485 157.264C113.965 158.476 113.619 158.996 112.406 159.689C110.674 160.208 108.769 159.689 107.037 159.515C106.344 160.728 105.825 162.113 105.132 162.979C104.612 164.192 103.92 164.538 103.054 164.711C102.014 164.711 101.148 164.538 100.109 164.365C99.5897 163.845 99.2433 163.326 99.7629 162.113C100.283 161.074 100.456 160.381 100.629 159.169C100.802 158.649 100.802 158.303 100.456 157.783C99.4164 158.649 99.2432 159.516 99.07 160.208C98.5505 161.594 98.3772 162.287 98.0308 163.153C97.5112 164.365 97.338 164.365 96.6452 165.231C95.606 165.924 94.7401 165.751 93.8741 165.404C93.1813 164.711 92.8349 164.538 92.3153 163.845C92.8349 163.153 93.3545 162.806 93.8741 162.633C94.3937 162.46 95.2596 161.94 95.7792 161.594C96.2988 161.247 96.6453 160.208 96.8184 159.515C95.7793 159.515 95.0864 159.862 93.5276 159.515C91.4492 158.476 90.7565 155.705 91.4493 152.241C91.7957 150.855 91.7957 149.989 93.0081 148.604C94.0472 148.257 94.5668 148.777 95.0864 149.643C95.7792 150.682 96.2988 152.068 96.472 152.414C96.9916 153.453 97.6844 154.666 97.8576 155.705C98.204 155.878 98.204 155.878 99.07 156.051C99.07 152.414 98.5504 148.431 98.3773 144.793C98.3773 142.369 99.0701 139.771 100.629 138.385C102.014 136.826 104.093 135.96 106.864 135.614C109.808 135.441 111.887 135.441 113.792 136.307C117.083 137.346 117.775 137.865 119.507 138.731C120.373 139.251 121.24 139.771 122.106 140.29Z" fill="white"/>
<path d="M135.442 138.73C135.442 138.73 136.481 138.903 137.52 138.21C138.386 137.864 139.771 137.691 140.811 137.691L138.039 140.981C138.039 140.981 137 142.194 137.866 143.58C138.212 141.674 140.291 140.635 142.543 141.155C141.503 143.233 141.677 143.233 141.157 144.272C141.157 144.272 140.464 146.004 141.157 147.909C141.677 149.815 142.196 151.72 142.196 151.72L140.637 153.971L142.543 156.743C142.716 159.167 142.716 161.419 145.487 161.592C146.18 161.765 147.912 161.766 148.258 161.939C149.644 163.497 151.202 163.497 153.454 163.844C156.398 163.844 159.17 163.671 159.17 163.671V160.726L159.516 158.821C159.516 158.821 161.075 157.089 162.114 153.279C163.5 147.39 162.98 143.406 162.634 141.155C161.941 137.171 157.091 135.959 157.091 135.959C157.091 135.959 155.879 135.266 152.588 134.747C148.431 134.054 144.967 133.88 140.81 134.92C135.615 135.959 135.615 138.73 135.442 138.73Z" fill="white"/>
<path d="M79.4966 221.691L77.4182 220.479V220.306C77.7646 219.786 77.9379 219.266 77.7647 218.92C77.5916 218.4 77.4183 218.054 76.8987 217.881C76.5523 217.534 76.0327 217.534 75.5131 217.708C75.1667 217.708 74.8203 218.054 74.4739 218.574C74.1275 219.267 74.3008 220.133 75.3399 221.172C75.3399 221.345 75.5132 221.345 75.5132 221.518C76.3792 222.211 76.7256 223.077 76.8988 223.943C77.0721 224.636 76.8987 225.502 76.5523 226.368C75.8595 227.407 74.9935 228.1 74.1275 228.446C73.0883 228.792 72.0492 228.619 71.01 228.1C69.9708 227.58 69.4512 226.887 69.1048 225.848C68.9317 224.982 69.1049 223.943 69.6245 222.904L71.7028 223.943V224.116C71.5295 224.463 71.3564 224.809 71.5295 225.155C71.7028 225.675 71.8758 225.848 72.2223 226.021C72.5686 226.368 72.9151 226.368 73.4347 226.195C73.7811 226.195 73.9542 225.848 74.3006 225.502C74.3006 225.329 74.4737 225.155 74.4737 224.982C74.4737 224.809 74.4737 224.636 74.4737 224.463C74.3006 224.116 73.9542 223.597 73.2614 222.904C73.0881 222.731 72.915 222.384 72.7418 222.211C72.049 221.518 71.7025 220.826 71.5294 220.133C71.3563 219.267 71.5294 218.574 72.049 217.708C72.7418 216.496 73.6078 215.63 74.8202 215.283C75.8594 214.937 76.8985 215.11 78.1109 215.63C79.1501 216.322 79.843 217.188 80.1894 218.228C80.3627 219.267 80.1894 220.479 79.4966 221.691ZM66.5067 217.188L65.9872 216.842C65.1212 216.149 64.2551 215.803 63.5623 215.803C62.8695 215.803 62.3499 216.149 62.0035 216.669C61.4839 217.188 61.3108 217.881 61.484 218.401C61.6573 218.92 62.1768 219.613 63.0428 220.133L63.9088 220.652L66.5067 217.188ZM70.6635 211.473L72.7419 213.031L64.7747 224.116L62.0035 222.211C61.1375 221.518 60.618 221.172 60.2716 220.825C59.9252 220.306 59.5788 219.959 59.4056 219.613C59.0592 218.92 58.7127 218.227 58.8859 217.361C58.8859 216.669 59.2324 215.803 59.7519 215.11C60.2715 214.244 61.1375 213.724 62.0035 213.551C62.8695 213.205 63.9087 213.378 64.7747 213.724L65.1211 207.489L67.7191 209.221L66.8532 216.495L70.6635 211.473ZM63.9088 206.45L54.7292 216.669L52.6508 214.937L62.0035 204.718L63.9088 206.45ZM48.3209 202.986L48.1475 202.813C47.6279 202.293 47.1084 201.947 46.5888 201.947C46.2425 201.774 45.7228 201.947 45.3764 202.293C45.03 202.813 44.8568 203.159 44.8568 203.506C45.0301 204.025 45.2032 204.372 45.7228 204.891L46.0692 205.238L48.3209 202.986ZM52.4776 199.002L51.958 198.483C51.2652 197.79 50.7456 197.444 50.3992 197.444C49.8796 197.27 49.5333 197.443 49.0137 197.963C48.6673 198.309 48.3209 198.829 48.4941 199.349C48.4941 199.868 48.8405 200.388 49.3601 200.907L49.8797 201.6L52.4776 199.002ZM55.9417 199.176L46.0693 208.875L43.9909 206.623C43.6445 206.277 43.2981 205.93 43.1249 205.584C42.9518 205.238 42.7785 205.064 42.6053 204.718C42.259 204.025 42.2589 203.332 42.432 202.64C42.432 201.947 42.7784 201.254 43.4712 200.734C43.8176 200.215 44.3372 200.042 44.8568 199.868C45.3764 199.695 45.896 199.695 46.4156 199.868C46.0692 199.176 45.896 198.656 46.0692 197.963C46.2425 197.27 46.5888 196.578 47.1084 196.058C47.628 195.538 48.1476 195.365 48.6672 195.019C49.1868 194.846 49.8795 194.672 50.3991 194.846C50.9187 194.846 51.4383 195.019 51.9579 195.365C52.3043 195.539 52.9972 196.058 53.69 196.751L55.9417 199.176ZM41.2198 189.996L38.6217 193.806L43.1249 192.767L41.2198 189.996ZM45.7229 192.074L48.8404 191.208L50.3992 193.46L36.0238 197.097L34.6382 195.192L42.9517 182.895L44.5105 185.32L42.7786 187.744L45.7229 192.074ZM39.1414 176.487L42.4321 182.549L30.4814 189.303L29.0958 186.878L38.9682 181.509L36.8898 177.699L39.1414 176.487ZM30.3083 171.117L27.0174 174.408L31.6938 174.235L30.3083 171.117ZM34.465 173.889L37.4094 173.715L38.6217 176.313L23.8998 177.006L22.8607 174.928L33.2526 164.536L34.465 167.134L32.3866 169.385L34.465 173.889ZM26.4979 159.167C27.5371 158.82 28.0566 158.647 28.5762 158.647C29.0958 158.647 29.6154 158.647 29.9618 158.647C30.4814 158.82 31.001 159.167 31.5206 159.686C31.867 160.033 32.2134 160.725 32.3866 161.418C32.9062 162.457 32.733 163.497 32.2133 164.363C31.8669 165.055 31.001 165.748 29.7886 166.095L28.9226 163.497C29.4422 163.497 29.6154 163.15 29.7886 162.977C29.9619 162.804 29.9619 162.457 29.7886 162.111C29.7886 161.765 29.4422 161.418 29.0958 161.418C28.7494 161.418 28.0565 161.418 27.1905 161.765L18.7038 164.363L17.8378 161.765L26.4979 159.167ZM30.3083 155.53L16.9719 159.34L16.2791 156.742L29.6155 152.932L30.3083 155.53ZM16.7987 133.533L17.1452 136.824C16.6256 137.344 16.2791 137.863 16.1059 138.383C15.9326 138.902 15.9327 139.595 15.9327 140.288C16.106 140.808 16.2791 141.327 16.4523 141.847C16.7986 142.193 17.145 142.713 17.4914 143.059C18.011 143.406 18.5306 143.579 19.0502 143.752C19.5698 143.925 20.2626 143.925 20.7822 143.925C21.9946 143.752 23.0338 143.232 23.7266 142.366C24.5926 141.327 24.7657 140.288 24.7657 139.249C24.5924 138.556 24.4193 137.863 24.0729 137.517C23.7265 136.997 23.3802 136.478 22.8606 136.304L22.5142 133.014C23.8998 133.533 25.1122 134.226 25.9782 135.092C26.671 136.131 27.1906 137.344 27.3638 138.902C27.5371 139.942 27.537 140.807 27.1907 141.847C26.8443 142.713 26.4979 143.579 25.8051 144.271C25.1123 144.964 24.4195 145.484 23.7267 145.83C22.8607 146.35 21.9947 146.523 21.1287 146.696C20.0895 146.869 19.2235 146.696 18.3575 146.523C17.4915 146.177 16.6256 145.83 15.7596 145.137C15.0668 144.618 14.5471 143.925 14.0276 143.059C13.6812 142.366 13.3347 141.5 13.1615 140.634C12.9882 139.075 13.1615 137.69 13.8543 136.651C14.3739 135.438 15.4131 134.399 16.7987 133.533ZM19.3968 128.337C20.0895 128.337 20.6091 128.337 21.1287 128.164C21.6483 127.991 21.9947 127.645 22.5142 127.298C23.0338 126.779 23.3803 126.432 23.5535 125.913C23.8999 125.393 24.073 124.7 24.073 124.181C24.073 122.968 23.5535 121.929 22.6875 121.063C21.9947 120.37 20.7823 119.851 19.5699 119.851C18.3575 119.851 17.3183 120.197 16.6255 121.063C15.7595 121.929 15.2399 122.795 15.2399 124.007C15.2399 125.22 15.5864 126.259 16.4524 127.125C17.3184 127.991 18.1844 128.337 19.3968 128.337ZM19.3968 131.282C18.7039 131.282 18.0111 131.109 17.3183 130.935C16.6255 130.589 16.1059 130.416 15.4131 129.896C14.5471 129.203 13.6811 128.337 13.1615 127.298C12.642 126.259 12.4688 125.22 12.4688 124.007C12.4688 122.968 12.642 122.102 12.9883 121.236C13.3347 120.543 13.8543 119.677 14.5471 118.985C15.2399 118.465 16.1059 117.945 16.9719 117.599C17.8379 117.253 18.7039 117.079 19.7431 117.079C20.6091 117.079 21.6483 117.252 22.5142 117.599C23.207 117.945 24.0731 118.465 24.7658 119.158C25.4586 119.851 25.9782 120.543 26.3246 121.409C26.671 122.275 26.8442 123.314 26.8442 124.18C26.8442 125.22 26.4978 126.259 26.1514 127.125C25.805 127.991 25.2855 128.684 24.5927 129.376C23.8999 129.896 23.0339 130.416 22.1679 130.762C21.3019 131.108 20.4359 131.282 19.3968 131.282ZM28.403 108.593L27.1907 115.521L13.508 113.096L14.0276 110.498L25.1123 112.403L25.9783 108.073L28.403 108.593ZM30.135 100.279L28.5762 107.034L15.0668 104.09L15.7596 101.492L26.8442 103.916L27.7102 99.7595L30.135 100.279ZM33.2526 91.6192L30.6546 98.7203L17.6647 93.6976L20.4359 86.7697L22.6875 87.6357L20.9554 92.1388L23.8998 93.178L25.6318 88.6748L27.8834 89.5408L26.1514 94.044L29.269 95.2564L31.001 90.7532L33.2526 91.6192ZM33.599 73.9529C33.599 73.9529 33.599 74.126 33.7723 74.126H33.9455C34.4651 74.4724 34.9847 74.8189 35.3311 75.1653C35.6775 75.5117 36.024 75.858 36.3704 76.2044C37.2363 77.4168 37.7559 78.6292 37.7559 80.0148C37.929 81.2272 37.5826 82.6128 36.8899 83.8252C36.3703 84.6912 35.8508 85.5572 34.9848 86.0768C34.292 86.5964 33.4259 87.1159 32.3867 87.2891C31.5207 87.6355 30.6548 87.6355 29.7888 87.4622C28.9228 87.2891 28.0569 87.1158 27.1909 86.5962C26.3249 86.2498 25.632 85.5571 25.1124 84.8643C24.4196 84.1715 24.0732 83.3055 23.7268 82.2663C23.5535 81.4003 23.3805 80.5343 23.5536 79.6683C23.5536 78.8023 23.9 77.7632 24.4196 76.8972C25.1124 75.6848 25.9784 74.6455 27.1908 74.1259C28.23 73.4331 29.6155 73.26 31.1743 73.26L29.6155 76.2044C28.9227 76.3775 28.4032 76.5508 27.8836 76.8972C27.364 77.2436 27.0175 77.7632 26.6711 78.2828C26.1515 79.4951 26.1516 80.5343 26.4979 81.5735C26.8443 82.7859 27.537 83.6519 28.5762 84.1715C29.7886 84.6911 30.8278 84.8642 32.0402 84.5179C33.0793 84.1714 33.9454 83.4787 34.465 82.4395C34.9846 81.7467 35.1577 80.8807 34.9846 80.0147C34.9846 79.3219 34.6381 78.4559 34.1185 77.9363L31.5206 82.6127L29.4422 81.5735L33.599 73.9529ZM44.8569 69.7962L40.7001 75.8582L29.269 68.2374L33.4257 62.0023L35.331 63.3879L32.733 67.3714L35.331 69.1034L38.1022 65.1198L40.0073 66.5055L37.4094 70.489L40.1805 72.3942L42.7786 68.4106L44.8569 69.7962ZM45.8961 56.9795C46.2425 57.3259 46.7621 57.6722 47.2816 57.8454C47.8012 58.1919 48.3208 58.1919 48.8404 58.1919C49.5332 58.1919 50.0529 58.1919 50.5725 58.0188C51.2653 57.6724 51.6117 57.4991 52.1313 56.9795C52.8241 56.1135 53.3436 55.0744 53.1704 53.8621C53.1704 52.8229 52.6508 51.7836 51.7848 50.7445C50.9188 50.0517 49.8796 49.5321 48.8404 49.5321C47.628 49.7054 46.5889 50.0517 45.8961 50.9177C45.0301 51.7837 44.5105 52.8229 44.5105 54.0353C44.5105 55.0745 45.0301 56.1135 45.8961 56.9795ZM43.9909 59.0579C43.4713 58.5383 42.9517 58.0187 42.6053 57.3259C42.259 56.8063 42.0858 56.1135 41.9126 55.4207C41.7393 54.2084 41.7392 52.9959 42.0858 51.9567C42.4322 50.9175 42.9518 49.8784 43.8178 49.0124C44.5106 48.3196 45.2034 47.8 46.0694 47.4536C46.9354 47.1072 47.8014 46.9339 48.6673 46.9339C49.7065 46.7608 50.5725 46.934 51.4385 47.2804C52.3045 47.6268 53.1705 48.1464 53.6901 48.8392C54.5561 49.532 55.0757 50.2248 55.4221 51.0908C55.7685 51.9568 55.9417 52.8228 56.1149 53.8619C56.1149 54.7279 55.9418 55.5939 55.5953 56.6331C55.2489 57.4991 54.7293 58.1919 54.0365 58.8847C53.3437 59.7507 52.6509 60.2703 51.7849 60.6167C50.9189 60.9631 49.8798 61.1363 49.0138 61.1363C47.9746 61.1363 47.1086 60.9632 46.2426 60.6167C45.3767 60.2703 44.6837 59.7507 43.9909 59.0579ZM60.2716 52.4764L51.2653 42.0844L56.8076 37.2349L58.3664 38.9668L54.7292 42.0844L56.8076 44.5092L60.4447 41.3916L62.0035 43.1237L58.3664 46.2411L62.1768 50.7443L60.2716 52.4764ZM78.2842 39.3133L72.049 43.2968L64.7747 31.6925L71.0099 27.709L72.2223 29.7873L68.2388 32.2122L69.9707 34.9833L73.9543 32.3853L75.1666 34.4636L71.1831 36.8885L72.915 39.8328L77.0719 37.2349L78.2842 39.3133ZM82.6142 37.0617L80.1894 38.274L74.6471 25.6306L76.8987 24.5914L85.7318 30.3069L82.0946 22.3398L84.5193 21.1274L90.2349 33.7708L87.8102 34.8101L78.977 28.9213L82.6142 37.0617ZM103.052 21.9934C103.225 21.9934 103.225 21.9933 103.225 22.1664C103.225 22.3397 103.225 22.3398 103.225 22.3398C103.398 23.0326 103.571 23.5522 103.571 24.0718C103.571 24.5914 103.571 25.111 103.571 25.4574C103.225 27.0162 102.705 28.2286 101.839 29.0946C100.973 30.1337 99.7608 30.8265 98.3752 31.1729C97.336 31.5193 96.47 31.5193 95.4308 31.5193C94.5649 31.3462 93.5256 30.9997 92.6596 30.3069C91.9668 29.9605 91.274 29.2678 90.7544 28.575C90.2348 27.8822 89.8885 27.0162 89.5421 26.1502C89.3688 25.2842 89.1956 24.4182 89.3687 23.379C89.542 22.513 89.8884 21.647 90.408 20.781C90.7544 19.915 91.4471 19.2222 92.1399 18.7026C92.8327 18.0098 93.6987 17.6634 94.5647 17.317C96.1235 16.9706 97.3359 16.9706 98.5483 17.317C99.9339 17.8366 100.973 18.5295 101.839 19.7419L98.7215 20.6077C98.2019 20.2614 97.6822 20.0883 97.1626 19.9151C96.4698 19.9151 95.9503 19.915 95.2575 20.0881C94.0451 20.4345 93.3524 21.1273 92.6596 22.1664C92.14 23.2056 92.1399 24.2449 92.3131 25.4573C92.6595 26.6697 93.3523 27.5356 94.3915 28.2284C95.4307 28.748 96.6431 28.9213 97.6823 28.5749C98.5483 28.2285 99.2411 27.8821 99.7607 27.1893C100.28 26.6697 100.627 25.8036 100.627 25.1108L95.4307 26.4964L94.9112 24.2449L103.052 21.9934ZM107.035 28.575L104.957 15.0654L107.555 14.5459L109.633 28.2285L107.035 28.575ZM114.483 27.3625L111.885 27.709L110.153 14.0263L112.751 13.6799L119.505 21.647L118.293 12.9871L120.891 12.6406L122.623 26.3234L120.198 26.6697L113.444 18.3563L114.483 27.3625ZM132.495 26.4965H125.048V12.6406H132.495V15.0654H127.646V18.183H132.495V20.6077H127.646V24.0718H132.495V26.4965ZM142.021 27.5357L134.747 26.4965L136.652 12.8139L144.1 13.8531L143.753 16.2778L138.904 15.585L138.557 18.7026L143.234 19.3954L142.887 21.647L138.211 20.9542L137.691 24.4181L142.368 25.1109L142.021 27.5357ZM148.43 21.3007L149.122 21.4738C150.162 21.6471 151.028 21.647 151.72 21.3007C152.24 21.1276 152.76 20.6079 152.76 19.9151C152.933 19.2223 152.933 18.5295 152.413 18.183C152.067 17.6635 151.374 17.317 150.335 17.1438L149.469 16.9707L148.43 21.3007ZM147.044 28.2285L144.446 27.709L147.217 14.1994L150.508 14.8922C151.547 15.0653 152.24 15.2387 152.76 15.4119C153.279 15.585 153.626 15.7583 153.972 16.1047C154.665 16.6243 155.011 17.1438 155.358 18.0098C155.531 18.7026 155.704 19.3954 155.531 20.2614C155.184 21.3006 154.838 22.1665 153.972 22.8593C153.279 23.3789 152.413 23.7254 151.374 23.7254L153.626 29.6141L150.508 28.9213L148.43 21.9934L147.044 28.2285ZM155.011 30.3069L158.822 16.9706L161.42 17.8366L157.609 30.9997L155.011 30.3069ZM162.286 32.7317L159.861 31.6925L164.71 18.8758L167.135 19.7419L169.213 29.9606L172.504 21.8202L174.929 22.6862L169.906 35.6761L167.655 34.6369L165.576 24.245L162.286 32.7317ZM187.399 36.5421C187.399 36.7154 187.399 36.7153 187.226 36.7153C187.226 36.8884 187.226 36.8885 187.226 37.0618C186.88 37.5814 186.533 37.9278 186.36 38.4474C186.014 38.7938 185.494 39.1401 185.148 39.4865C183.935 40.1793 182.723 40.6989 181.337 40.8721C180.125 40.8721 178.739 40.6991 177.527 40.0062C176.661 39.4866 175.968 38.7937 175.275 38.1009C174.756 37.2349 174.236 36.369 174.063 35.3298C173.89 34.4638 173.717 33.5978 173.89 32.7318C174.063 31.8658 174.236 30.9998 174.756 30.307C175.102 29.441 175.795 28.7482 176.488 28.0554C177.18 27.5358 178.046 27.0163 179.086 26.8431C179.952 26.4967 180.818 26.4966 181.684 26.4966C182.723 26.6697 183.589 26.843 184.455 27.3626C185.667 28.0554 186.706 29.0946 187.399 30.1338C187.919 31.3462 188.092 32.5586 188.092 34.1174L185.148 32.5586C184.974 32.039 184.801 31.3462 184.455 30.9998C184.108 30.4802 183.589 30.1339 183.069 29.7875C182.03 29.2679 180.818 29.0946 179.778 29.441C178.566 29.7874 177.873 30.6534 177.18 31.6926C176.661 32.7318 176.488 33.9442 176.834 34.9834C177.18 36.1958 177.873 37.0617 178.912 37.5814C179.778 37.9277 180.471 38.1009 181.337 38.1009C182.03 37.9278 182.896 37.5814 183.416 37.0618L178.739 34.637L179.778 32.5586L187.399 36.5421ZM196.925 50.5711C195.886 50.9175 195.193 51.0908 194.327 50.9176C193.461 50.9176 192.769 50.5712 192.249 50.0515C191.383 49.1856 190.863 48.3196 190.863 47.2804C190.69 46.068 191.036 45.0288 191.902 44.1628C192.422 43.6432 192.942 43.2968 193.635 42.9504C194.327 42.7773 195.193 42.7773 196.232 42.7773C196.232 42.0845 196.233 41.3917 196.406 41.0453C196.406 40.5257 196.752 40.1793 196.925 39.8329C197.618 38.9669 198.484 38.6206 199.35 38.6206C200.216 38.4475 201.082 38.7936 201.775 39.4865C202.468 40.0061 202.814 40.699 202.987 41.565C202.987 42.431 202.641 43.2969 202.121 43.9897C201.775 44.3361 201.255 44.6825 200.563 44.8557C200.043 45.0288 199.35 45.0288 198.484 45.0288L198.831 47.6267L201.948 45.8948L203.853 47.6267L199.177 49.8783L199.697 54.0352L197.272 54.3815L196.925 50.5711ZM196.579 48.3195L196.232 45.202C195.713 45.0289 195.193 45.0289 194.674 45.0289C194.327 45.202 193.981 45.3753 193.635 45.7217C193.288 46.0681 193.115 46.5877 193.115 46.9341C193.288 47.4537 193.461 47.8001 193.808 48.1465C194.154 48.4929 194.501 48.6661 195.02 48.6661C195.367 48.6661 195.886 48.4928 196.579 48.3195ZM198.484 42.9504C198.83 43.1235 199.35 43.1235 199.697 43.1235C199.87 42.9504 200.216 42.9505 200.389 42.604C200.562 42.4309 200.736 42.0844 200.736 41.738C200.736 41.5649 200.562 41.2184 200.389 41.0452C200.043 40.8721 199.87 40.6987 199.523 40.6987C199.177 40.6987 199.004 40.8718 198.657 41.2183C198.484 41.3914 198.484 41.5647 198.311 41.9111C198.311 42.2575 198.311 42.604 198.484 42.9504ZM218.055 56.2868L216.15 57.8454L214.418 55.7671L205.932 63.2146L204.2 61.3095L212.686 53.8619L210.954 51.7836L212.86 50.2248L218.055 56.2868ZM212.686 72.3942L208.183 66.3322L219.441 58.1919L223.771 64.2539L221.866 65.6395L218.921 61.8291L216.497 63.7342L219.268 67.5446L217.363 68.9302L214.592 65.1198L211.82 67.025L214.592 71.0085L212.686 72.3942ZM228.621 81.0541L227.062 78.1098C227.235 77.5902 227.408 76.8973 227.408 76.3777C227.408 75.6849 227.235 75.1654 226.889 74.4726C226.715 74.1262 226.369 73.6065 225.849 73.2601C225.503 72.9137 224.983 72.7405 224.464 72.5673C223.944 72.3942 223.251 72.3942 222.732 72.3942C222.212 72.3942 221.519 72.5674 221.173 72.9139C219.961 73.4335 219.268 74.2994 218.921 75.5118C218.402 76.551 218.575 77.5903 219.095 78.6294C219.441 79.3223 219.788 79.6686 220.307 80.1882C220.827 80.5346 221.346 80.7078 221.866 80.7078L223.425 83.6522C221.866 83.8253 220.654 83.4791 219.441 82.9594C218.402 82.2666 217.363 81.2274 216.67 80.015C216.15 79.149 215.977 78.1099 215.804 77.2439C215.804 76.2047 215.977 75.1655 216.324 74.2995C216.67 73.4335 217.016 72.7407 217.709 72.0479C218.229 71.3551 218.922 70.8355 219.788 70.3159C220.654 69.9695 221.52 69.6231 222.559 69.6231C223.425 69.45 224.291 69.6231 225.33 69.9695C226.196 70.1426 227.062 70.6623 227.755 71.1819C228.448 71.7015 228.967 72.3943 229.314 73.2602C230.006 74.6458 230.353 75.8583 230.18 77.2439C230.18 78.4563 229.487 79.8418 228.621 81.0541ZM226.889 87.4625L221.693 89.7141L220.654 87.116L233.297 81.7469L234.336 84.3449L229.313 86.4232L231.045 90.5801L236.068 88.3285L237.107 90.9264L224.464 96.2956L223.425 93.6976L228.621 91.6192L226.889 87.4625ZM225.676 101.145L224.983 98.5472L238.493 95.0831L239.013 97.6812L231.911 105.302L240.398 103.223L241.091 105.648L227.755 109.112L227.062 106.687L234.509 98.8935L225.676 101.145ZM235.375 112.923C234.683 112.923 234.163 113.096 233.817 113.269C233.297 113.615 232.777 113.962 232.431 114.308C231.911 114.828 231.738 115.347 231.565 115.867C231.219 116.387 231.219 116.906 231.219 117.599C231.392 118.811 231.911 119.677 232.777 120.543C233.643 121.236 234.856 121.583 236.068 121.409C237.281 121.236 238.32 120.89 239.013 119.851C239.705 118.985 240.052 117.945 240.052 116.906C239.878 115.694 239.359 114.655 238.493 113.962C237.627 113.096 236.588 112.749 235.375 112.923ZM235.029 110.151C235.722 109.978 236.415 110.151 237.107 110.151C237.8 110.325 238.493 110.671 239.186 111.017C240.225 111.537 241.091 112.403 241.611 113.269C242.303 114.308 242.65 115.347 242.823 116.56C242.823 117.426 242.65 118.465 242.477 119.331C242.13 120.197 241.784 120.89 241.091 121.756C240.571 122.449 239.705 122.968 239.013 123.488C238.147 123.834 237.281 124.18 236.241 124.18C235.375 124.354 234.336 124.18 233.47 124.007C232.604 123.661 231.738 123.315 231.045 122.622C230.353 122.102 229.66 121.409 229.313 120.543C228.794 119.677 228.621 118.811 228.447 117.772C228.447 116.733 228.447 115.867 228.794 115.001C229.14 113.962 229.487 113.269 230.179 112.576C230.872 111.71 231.565 111.191 232.431 110.844C233.124 110.498 233.99 110.151 235.029 110.151ZM229.14 133.533V126.605H242.996V129.376H231.565V133.533H229.14ZM235.722 137.517C235.202 137.517 234.683 137.517 233.99 137.517C233.47 137.69 232.951 137.863 232.604 138.21C232.085 138.556 231.565 139.076 231.219 139.595C231.045 140.115 230.699 140.634 230.699 141.154C230.526 142.366 230.872 143.406 231.565 144.272C232.258 145.311 233.297 145.83 234.509 146.004C235.722 146.177 236.761 145.83 237.627 145.138C238.666 144.445 239.186 143.579 239.359 142.366C239.532 141.154 239.186 140.115 238.493 139.249C237.8 138.21 236.934 137.69 235.722 137.517ZM236.068 134.746C236.761 134.746 237.454 135.092 238.147 135.265C238.839 135.612 239.359 135.958 239.878 136.478C240.744 137.344 241.437 138.21 241.784 139.249C242.13 140.461 242.303 141.5 242.13 142.713C241.957 143.752 241.61 144.618 241.264 145.311C240.744 146.177 240.225 146.87 239.359 147.389C238.666 147.909 237.8 148.428 236.934 148.602C236.068 148.775 235.029 148.948 234.163 148.775C233.124 148.602 232.258 148.255 231.392 147.909C230.699 147.389 230.006 146.87 229.313 146.004C228.794 145.311 228.447 144.445 228.101 143.579C227.928 142.713 227.755 141.674 227.928 140.808C228.101 139.768 228.447 138.902 228.794 138.036C229.313 137.17 230.006 136.478 230.872 135.958C231.565 135.439 232.431 135.092 233.297 134.919C234.163 134.573 235.029 134.573 236.068 134.746ZM230.526 164.363H230.353C230.179 164.363 230.179 164.363 230.179 164.363C229.486 164.189 228.967 164.016 228.62 163.843C228.101 163.497 227.581 163.323 227.235 162.977C226.196 161.938 225.503 160.899 225.156 159.513C224.637 158.301 224.637 156.915 224.983 155.703C225.33 154.663 225.676 153.797 226.369 152.931C227.062 152.239 227.754 151.546 228.62 151.199C229.486 150.68 230.352 150.507 231.218 150.507C232.084 150.334 232.95 150.507 233.816 150.68C234.855 150.853 235.548 151.373 236.414 151.892C237.107 152.412 237.8 153.278 238.146 154.144C238.666 155.01 239.012 155.876 239.012 156.742C239.186 157.608 239.012 158.474 238.839 159.513C238.493 160.899 237.8 162.111 236.761 162.977C235.895 163.843 234.509 164.362 233.123 164.536L233.989 161.418C234.509 161.072 235.029 160.725 235.375 160.206C235.721 159.859 236.068 159.34 236.241 158.647C236.587 157.435 236.414 156.395 235.721 155.356C235.202 154.317 234.163 153.797 233.123 153.451C231.911 153.105 230.699 153.278 229.659 153.797C228.62 154.317 227.927 155.356 227.754 156.395C227.408 157.261 227.581 158.127 227.754 158.82C228.101 159.686 228.447 160.206 229.14 160.725L230.525 155.529L232.777 156.222L230.526 164.363ZM225.503 169.732L220.827 168L221.866 165.402L226.542 167.307L236.068 166.787L235.029 169.559H228.621L233.297 173.888L232.258 176.66L225.503 169.732ZM220.827 174.062L218.575 172.849C217.882 172.503 217.363 171.983 217.19 171.464C216.843 170.944 217.016 170.251 217.363 169.559L218.575 170.251C218.575 170.425 218.575 170.771 218.575 170.944C218.575 171.117 218.749 171.291 219.095 171.291L219.268 171.464L219.615 170.771L221.866 171.81L220.827 174.062ZM214.938 188.091C214.072 187.571 213.552 187.225 213.206 186.878C212.86 186.532 212.686 186.186 212.513 185.839C212.167 185.146 212.167 184.627 212.167 183.934C212.167 183.415 212.513 182.722 212.86 182.202C213.552 181.163 214.245 180.47 215.284 180.297C216.15 180.124 217.189 180.47 218.229 181.163L216.843 183.414H216.67C216.323 183.241 216.15 183.068 215.804 183.068C215.457 183.241 215.284 183.414 215.111 183.588C214.938 183.934 214.938 184.28 215.111 184.627C215.284 184.973 215.804 185.493 216.497 186.012L223.944 190.862L222.559 193.114L214.938 188.091ZM210.262 195.711L214.765 197.097L212.34 193.114L210.262 195.711ZM210.781 190.689L209.222 188.091L210.954 186.012L218.575 198.656L217.016 200.561L202.987 196.231L204.719 193.806L207.664 194.846L210.781 190.689ZM202.121 196.404L212.167 205.93L210.435 207.835L200.389 198.483L202.121 196.404ZM201.948 207.316L201.428 207.835C200.909 208.355 200.562 208.875 200.562 209.394C200.562 209.741 200.736 210.26 201.082 210.78C201.602 211.126 201.948 211.299 202.468 211.299C202.987 211.299 203.507 210.953 204.026 210.433L204.546 209.914L201.948 207.316ZM196.752 201.773L198.657 199.868L208.183 209.741L205.758 212.165C205.065 212.858 204.546 213.205 204.2 213.551C203.68 213.724 203.334 213.897 202.987 214.071C202.294 214.244 201.602 214.071 200.909 213.897C200.216 213.724 199.696 213.204 199.177 212.685C198.311 211.819 197.791 210.78 197.964 209.567C197.964 208.355 198.657 207.316 199.696 206.277L200.389 205.584L196.752 201.773ZM199.523 217.881L197.272 219.44L192.595 213.031C191.902 211.992 191.383 211.473 190.863 211.126C190.344 210.953 189.824 210.953 189.304 211.473C188.785 211.819 188.612 212.165 188.612 212.858C188.785 213.378 189.131 214.071 189.824 215.11L194.5 221.518L192.422 223.077L187.226 215.976C186.706 215.283 186.187 214.59 186.014 214.244C185.84 213.724 185.84 213.205 185.667 212.858C185.667 211.992 185.841 211.473 186.187 210.78C186.533 210.26 187.053 209.567 187.746 209.221C188.438 208.701 189.131 208.355 189.651 208.182C190.344 208.182 191.036 208.182 191.729 208.528C192.249 208.528 192.595 208.875 192.942 209.048C193.288 209.394 193.808 209.914 194.327 210.78L199.523 217.881ZM183.589 220.652L183.069 220.999C182.203 221.518 181.51 222.211 181.164 222.73C180.991 223.423 180.991 224.116 181.337 224.636C181.684 225.329 182.203 225.675 182.723 225.675C183.416 225.848 184.108 225.675 184.974 225.155L185.84 224.636L183.589 220.652ZM180.125 214.59L182.376 213.205L189.304 225.155L186.36 226.887C185.494 227.407 184.801 227.753 184.455 227.926C183.935 228.1 183.416 228.273 183.069 228.273C182.203 228.273 181.511 228.1 180.818 227.753C180.125 227.407 179.432 226.887 179.086 226.021C178.566 225.155 178.393 224.289 178.393 223.25C178.566 222.384 179.086 221.518 179.779 220.825L174.236 218.054L177.007 216.322L183.242 220.133L180.125 214.59Z" fill="#131516"/>
<path fill-rule="evenodd" clip-rule="evenodd" d="M48.8979 262.74V279.887H47.8587H46.2998V267.243H38.1595C36.717 267.633 37.6584 270.193 39.6332 270.905C40.3661 270.865 41.9656 270.457 43.556 270.598C44.8194 273.699 43.2732 276.655 40.9306 278.155L43.8751 280.753L42.6627 281.965H41.4503L38.5059 278.328C36.7506 278.57 34.9754 277.372 34.8688 276.423C34.8515 275.648 34.8707 274.882 35.671 274.782C36.3567 274.724 37.1857 274.672 37.9864 275.21C38.4952 275.719 38.9093 276.133 39.372 276.596C41.2803 276.14 42.4336 274.549 42.3163 272.785C42.3163 272.612 42.1432 272.439 41.9699 272.439C40.5201 272.748 38.2087 272.644 37.6399 272.266C36.4435 271.368 35.8614 270.21 35.2151 268.975C35.042 268.455 34.8688 267.936 34.8688 267.416C34.9762 266.208 35.5597 265.928 36.4276 265.857H46.2998V262.74H32.6172V261.354H33.8295H50.803V262.74L48.8979 262.74ZM56.3453 262.74V279.887H55.133H53.5742V262.74L50.803 262.74V261.354H51.8423H58.7702V262.74H56.3453ZM71.9333 262.74V279.887H70.894H69.3353V269.148H65.0054V272.266V272.959C65.0054 273.059 64.9549 273.19 64.6589 273.305C64.2723 273.328 63.7352 273.305 63.2733 273.305C63.1 273.305 62.9269 273.132 62.5806 272.785C61.5289 271.584 60.284 269.65 60.1557 268.802C59.9782 267.939 60.5864 267.803 61.195 267.763H69.3353V262.74H58.7702V261.354H74.3581V262.74H71.9333ZM71.2405 257.371V254.946H72.4528H74.3581V257.371H73.1456H71.2405ZM103.109 261.354L102.416 260.488C100.327 257.826 98.1278 254.976 94.6223 254.773C92.6181 254.824 91.2705 257.704 92.5439 261.008L92.717 261.354H94.8821V262.74H92.717V279.887H91.5046H89.9459V262.74H87.5211V261.354H90.119L89.9458 261.008C89.2092 257.78 89.7693 254.555 92.3705 253.56C93.4256 253.212 94.2313 253.217 95.3148 253.214C100.091 253.793 102.906 257.48 105.36 260.315L106.226 261.354H105.014H103.109ZM107.093 262.74V279.887H105.88H104.321V275.21V275.384H104.148L103.282 275.903C102.59 276.189 101.746 276.279 101.054 276.099C99.8567 275.756 99.1657 275.205 98.2596 274.517C96.9796 273.25 96.9564 272.286 96.874 270.88C96.9279 269.474 97.2816 268.043 97.9131 267.243C98.2595 266.724 98.7791 266.377 99.2987 266.031C99.6451 265.858 100.165 265.684 100.684 265.684H101.897C102.599 265.727 103.651 265.884 104.321 266.031L104.321 268.147C103.028 267.368 101.923 266.905 100.857 267.59C99.8084 268.398 99.6062 269.282 99.4797 270.564C99.3936 271.9 99.7517 272.43 100.406 273.358C100.909 273.754 101.734 274.202 102.379 274.058C103.105 273.866 103.381 273.488 103.697 273.199C103.915 272.861 104.148 272.439 104.321 272.266V262.74H94.8821V261.354L95.8348 261.354H109.431V262.74H107.093ZM125.452 262.74V279.887H124.239H122.68V267.243H114.54C114.246 267.319 113.822 267.749 114.045 268.282C114.638 269.763 115.529 270.965 116.272 271.053C117.133 271.014 117.503 270.908 117.913 270.757C118.511 270.561 118.916 270.464 119.563 270.361C120.299 270.255 120.753 270.869 120.948 271.227C121.292 271.918 121.447 272.627 121.468 273.305C121.468 273.998 121.295 274.517 121.122 275.037C120.949 275.557 120.602 275.903 120.256 276.423C119.752 276.937 119.184 277.276 118.697 277.635C118.177 277.981 117.831 278.155 117.311 278.155L120.256 280.753L119.043 281.965H117.831L114.886 278.328H112.981C112.744 278.275 112.504 278.186 112.278 278.035C112.027 277.829 111.79 277.592 111.596 277.289C111.476 277.03 111.423 276.769 111.423 276.423C111.442 275.979 111.45 275.723 111.769 275.383C112.222 274.954 112.966 274.854 113.664 274.952C113.999 275.016 114.3 275.069 114.473 275.242L115.233 275.903C115.445 276.134 115.581 276.367 115.753 276.596H116.099C116.373 276.509 116.589 276.351 116.792 276.249C117.485 275.903 118.004 275.383 118.351 275.037C119.128 274.023 118.76 273.162 118.524 272.439C118.283 272.277 118.065 272.371 117.831 272.439C117.455 272.557 117.021 272.577 116.619 272.612H115.58C115.06 272.612 114.594 272.485 114.194 272.266C113.674 271.845 113.282 271.456 112.84 270.816C112.427 270.244 112.059 269.657 111.769 268.975C111.518 268.413 111.423 267.936 111.423 267.416C111.419 266.782 111.694 265.983 112.289 265.857H112.981H122.681V262.74L109.431 262.74V261.354L110.21 261.354H127.357V262.74L125.452 262.74ZM132.726 262.74V279.887H131.514H129.955V262.74L127.357 262.74V261.354H128.396H135.237V262.74H132.726ZM148.487 262.74V279.887H147.275H145.716V269.148H141.386V272.959C141.423 273.402 141.182 273.258 140.866 273.305C140.464 273.306 140.161 273.356 139.654 273.305C138.423 272.315 137.244 270.398 136.71 268.802C136.482 268.048 136.955 267.69 137.402 267.763H137.749H145.716V262.74H135.237V261.354H136.017H150.565V262.74H148.487ZM166.673 262.74V279.887H165.634H164.075V270.534L159.29 270.504C159.636 270.046 159.75 269.679 159.734 268.975H164.075V262.74H159.745V267.416V267.936V268.456V268.802V269.148L159.654 269.856C159.481 270.203 159.436 270.444 158.984 270.752C158.427 271.21 157.949 271.193 157.32 271.4H156.551L156.454 271.227L158.359 274.518C159.273 276.09 160.118 277.212 161.13 278.674L159.918 279.887H158.706C158.532 279.713 158.013 279.021 157.32 277.982C155.369 274.656 153.632 271.224 151.951 267.763L153.337 266.724H154.376L155.242 268.802C156.101 270.314 156.939 269.297 156.974 268.975V268.283V267.763V267.417V262.74L150.565 262.74V261.354L151.258 261.355H168.924V262.74L166.673 262.74ZM184.512 261.354L183.646 260.488C182.067 258.428 180.418 256.855 178.162 255.636C177.151 255.046 176.104 254.862 175.16 255.226C174.215 255.589 173.786 256.801 173.601 257.89C173.416 258.98 173.441 259.718 173.947 261.008L174.121 261.354H176.372V262.74H174.121V279.887H172.908H171.349V262.74L168.924 262.74V261.355L171.523 261.354L171.349 261.008C171.124 260.207 170.984 259.439 171.003 258.583C171.003 257.717 171.176 257.198 171.349 256.505C171.523 255.985 171.869 255.292 172.215 254.773C172.873 253.934 173.976 253.302 175.506 253.214C176.831 253.194 177.871 253.256 178.97 253.734C179.836 254.08 180.702 254.6 181.741 255.292C183.342 256.477 184.519 257.782 185.898 259.276L186.764 260.315L187.63 261.354H186.418H184.512ZM188.323 262.74V267.416H181.395C181.118 267.481 180.985 267.721 180.875 267.936C181.18 268.733 181.751 269.805 182.261 270.707L183.127 270.534C183.882 270.384 184.397 270.429 185.032 270.429C185.84 270.472 186.437 270.631 186.937 270.88C187.344 271.166 188.33 271.723 188.661 272.302C189.54 273.589 189.228 275.008 188.782 276.114C188.523 276.493 188.28 276.721 187.916 276.95L186.764 277.115L185.725 276.076C185.898 275.903 186.129 275.717 186.304 275.466C186.549 275.022 186.639 274.674 186.711 274.186C186.522 272.933 185.959 272.3 185.205 272.093C184.447 271.897 183.612 271.992 183.127 272.266C182.78 272.439 182.434 272.612 182.088 272.959C181.914 273.132 181.568 273.478 181.395 273.998C181.221 274.517 181.221 274.864 181.221 275.383C181.221 276.076 181.478 276.754 181.997 277.447C182.344 277.966 183.24 278.696 184.452 279.043C185.624 279.517 186.755 279.537 187.803 279.713L187.283 280.926C185.845 281.095 184.944 280.985 183.646 280.753C182.097 280.169 180.186 278.899 179.489 278.155C178.797 277.289 178.45 276.249 178.45 275.21C178.474 274.191 178.916 273.335 179.489 272.612L180.182 271.746L179.489 270.88C179.071 270.246 178.303 268.522 178.104 267.416C178.035 266.665 178.679 265.841 179.489 265.857H185.725V262.74H176.372V261.354H177.411H190.834V262.74H188.323ZM204.084 262.74V279.887H203.045H201.486V267.936C201.486 267.936 198.02 267.85 197.156 267.936C196.291 268.022 196.556 267.99 196.29 268.109C196.024 268.228 195.772 268.419 195.597 268.629C195.168 269.135 195.133 269.624 195.077 270.187C195.058 270.771 195.292 272.152 195.424 272.785C195.78 273.889 196.035 274.5 196.29 275.037C196.782 276.231 197.917 277.639 198.541 278.328C199.1 278.865 198.616 279.444 198.022 279.886C197.356 280.254 196.858 279.939 196.463 279.54C195.328 278.046 194.258 276.466 193.519 275.21C193.258 274.643 192.821 273.457 192.653 272.612C192.439 271.362 192.267 270.282 192.48 268.802C192.57 268.36 192.762 267.94 192.999 267.589C193.237 267.238 193.627 266.919 193.865 266.723C194.2 266.538 194.498 266.378 195.078 266.377H201.486V262.74L190.834 262.74V261.354H191.614H206.595V262.74L204.084 262.74ZM219.498 262.74V279.887H218.286H216.9V270.707H212.744V273.305V273.651V273.824L212.397 274.171H212.051L210.998 274.203C210.825 274.209 210.407 274.04 210.146 273.825C209.678 273.382 209.378 272.832 209.107 272.439C208.76 271.919 208.573 271.572 208.241 271.053C207.914 270.564 207.882 270.062 208.022 269.698C208.169 269.361 208.457 269.172 208.76 269.148H209.973V262.74H206.595V261.354H207.375H221.75V262.74L219.498 262.74ZM216.9 262.74H212.744V269.148H216.9V262.74ZM221.75 287.161H220.711L216.727 281.965L218.113 281.099H219.152L222.443 286.295L221.75 287.161Z" fill="#131516"/>
<path d="M113.098 182.551H124.529L125.222 178.914H127.82H130.417L131.11 182.551H142.541V184.976H131.63L131.976 187.574H142.541V189.999H132.496L133.016 192.597H142.541V195.195H133.535L142.541 243.517V246.288H113.098V243.517L122.104 195.195H113.098V192.597H122.624L123.143 189.999H113.098V187.574H123.663L124.009 184.976H113.098V182.551ZM124.009 199.005L126.088 197.793L124.356 196.754L124.009 199.005ZM124.875 195.195L127.82 196.754L130.764 195.195H124.875ZM131.283 196.754L129.552 197.793L131.63 199.005L131.283 196.754ZM132.323 202.989L129.552 204.547L133.016 206.626L132.323 202.989ZM133.708 210.609L129.552 213.034L134.748 216.152L133.708 210.609ZM135.613 219.962L129.552 223.426L136.999 227.756L135.613 219.962ZM137.865 231.74L129.552 236.589L139.77 242.478L137.865 231.74ZM138.731 243.864L127.82 237.455L116.908 243.864H138.731ZM115.869 242.478L126.088 236.589L117.774 231.74L115.869 242.478ZM118.64 227.756L126.088 223.426L120.026 219.962L118.64 227.756ZM120.892 216.152L126.088 213.034L121.931 210.609L120.892 216.152ZM122.624 206.626L126.088 204.547L123.316 202.989L122.624 206.626ZM123.663 201.257L127.82 203.681L131.976 201.257L127.82 198.832L123.663 201.257ZM133.362 208.704L127.82 205.587L122.277 208.704L127.82 211.995L133.362 208.704ZM135.267 218.23L127.82 213.9L120.372 218.23L127.82 222.56L135.267 218.23ZM137.345 230.008L127.82 224.465L118.294 230.008L127.82 235.55L137.345 230.008ZM127.127 182.551H128.512L128.339 181.512H127.3L127.127 182.551ZM129.032 184.976H126.607L126.261 187.574H129.378L129.032 184.976ZM129.898 189.999H125.741L125.222 192.597H130.417L129.898 189.999Z" fill="white"/>
<path d="M133.535 219.269L135.267 218.23L127.82 213.9L120.372 218.23L122.104 219.269L127.82 222.56L133.535 219.269ZM117.774 218.75L119.333 210.609C120.026 210.609 120.892 210.783 121.758 210.783L120.892 216.152L126.088 213.034L122.45 210.783C123.663 210.956 124.875 210.956 126.088 210.956L127.82 211.995L129.552 210.956C130.764 210.956 131.976 210.956 133.189 210.783L129.552 213.034L134.748 216.152L133.882 210.783C134.748 210.783 135.614 210.609 136.306 210.609L137.865 218.75L142.541 243.517V246.288H113.098V243.517L117.774 218.75ZM135.613 219.962L129.552 223.426L136.999 227.756L135.613 219.962ZM137.865 231.74L129.552 236.589L139.77 242.478L137.865 231.74ZM138.731 243.863L127.82 237.455L116.908 243.863H138.731ZM115.869 242.478L126.088 236.589L117.774 231.74L115.869 242.478ZM118.64 227.756L126.088 223.426L120.026 219.962L118.64 227.756ZM137.345 230.008L127.82 224.465L118.294 230.008L127.82 235.55L137.345 230.008Z" fill="#2A176E"/>
<path d="M75.8577 93.1812L59.5772 93.0078V107.73L66.8515 107.903L67.0247 108.942H71.0083V107.903H75.6846L75.8577 93.1812ZM73.2598 95.4327H64.4267L64.2536 105.825L68.4103 105.998V106.691L70.6619 106.864V105.824L73.2599 105.998L73.2598 95.4327ZM66.3318 97.8576L66.1587 103.919H71.7011L71.5278 97.6843L66.3318 97.8576ZM51.9564 96.4719L58.5379 95.9523V107.21L51.9564 105.825V96.4719ZM56.1131 109.289L48.8388 111.54L65.9855 115.004L78.2826 111.54L70.1422 109.808L64.2535 111.194L56.1131 109.289ZM47.28 112.753L46.4141 118.122L65.2927 121.932L65.4659 116.043L47.28 112.753ZM68.0638 115.524L66.8515 117.602L78.9753 114.485L77.763 113.272L68.0638 115.524ZM78.1093 116.39L67.0246 118.815L66.8514 121.239L78.1092 117.949L78.1093 116.39Z" fill="white"/>
<path d="M73.2641 95.43H64.4309L64.2578 105.822L68.4145 105.995V106.688L70.6661 106.861V105.822L73.2642 105.995L73.2641 95.43Z" fill="#2A176E"/>
<path d="M66.3352 97.8568L66.1621 103.919H71.7045L71.5312 97.6836L66.3352 97.8568Z" fill="white"/>
<path d="M106.169 91.4492C108.594 91.4492 110.672 93.3544 112.058 96.472C115.522 96.1256 118.12 96.9916 119.332 98.8968C120.545 100.975 119.852 103.746 117.947 106.517C119.852 109.289 120.545 112.06 119.332 114.138C118.12 116.043 115.522 116.909 112.058 116.563C110.672 119.681 108.594 121.586 106.169 121.586C103.918 121.586 101.839 119.681 100.454 116.563C96.9897 116.909 94.2185 116.043 93.1793 114.138C91.9669 112.06 92.6597 109.289 94.5649 106.517C92.6597 103.746 91.9669 100.975 93.1793 98.8968C94.2185 96.9916 96.9897 96.1256 100.454 96.472C101.839 93.3544 103.918 91.4492 106.169 91.4492Z" fill="white"/>
<path d="M106.171 94.5664C107.383 94.5664 108.422 95.952 109.288 98.2036C108.249 97.8572 107.383 97.6839 106.171 97.6839C105.132 97.6839 104.092 97.8571 103.226 98.2036C103.919 95.952 105.132 94.5664 106.171 94.5664ZM111.886 99.7624C114.138 99.2428 116.043 99.416 116.563 100.455C117.256 101.494 116.563 103.226 114.831 104.958C114.484 102.88 113.445 101.148 111.886 99.7624ZM114.831 108.076C116.563 109.808 117.256 111.367 116.563 112.406C116.043 113.445 114.138 113.791 111.886 113.272C113.445 111.886 114.484 110.154 114.831 108.076ZM109.288 114.831C108.422 117.082 107.383 118.468 106.171 118.468C105.132 118.468 103.919 117.082 103.226 114.831C104.092 115.177 105.132 115.35 106.171 115.35C107.383 115.35 108.249 115.177 109.288 114.831ZM100.629 113.272C98.2038 113.791 96.4717 113.445 95.9521 112.406C95.2593 111.367 95.9522 109.808 97.5109 108.076C98.0305 110.154 99.0698 111.886 100.629 113.272ZM97.5109 104.958C95.9522 103.226 95.2593 101.494 95.9521 100.455C96.4717 99.416 98.2038 99.2428 100.629 99.7624C99.0698 101.148 98.0305 102.88 97.5109 104.958Z" fill="#2A176E"/>
<path d="M106.169 100.629C109.459 100.629 112.057 103.227 112.057 106.518C112.057 109.635 109.459 112.233 106.169 112.233C103.051 112.233 100.453 109.635 100.453 106.518C100.453 103.227 103.051 100.629 106.169 100.629Z" fill="#2A176E"/>
<path d="M106.168 103.398C108.074 103.398 109.459 104.784 109.459 106.516C109.459 108.248 108.074 109.634 106.168 109.634C104.436 109.634 103.051 108.248 103.051 106.516C103.051 104.784 104.436 103.398 106.168 103.398Z" fill="white"/>
<path d="M149.717 102.793C152.141 102.793 154.047 104.698 154.047 107.123C154.047 109.375 152.141 111.453 149.717 111.453C147.292 111.453 145.387 109.375 145.387 107.123C145.387 104.698 147.292 102.793 149.717 102.793Z" fill="#2A176E"/>
<path d="M199.176 89.7178C199.176 89.7178 205.238 101.149 193.287 110.155C195.192 116.564 196.924 121.76 196.924 121.76L178.565 121.586L178.392 118.642L184.281 112.753C184.281 112.753 170.078 114.312 182.895 98.3776C182.375 96.126 179.778 95.26 179.778 95.26C179.778 95.26 177.699 90.5836 183.068 91.796C184.974 93.3548 183.415 94.0476 185.839 95.4332C195.365 86.9465 199.176 89.7178 199.176 89.7178Z" fill="white"/>
<path d="M187.574 98.8963L191.385 103.053C191.385 103.053 197.793 97.3376 197.447 91.9684C196.234 91.2756 192.077 93.354 187.574 98.8963Z" fill="#2A176E"/>
<path d="M185.32 101.32L189.131 105.304C186.359 107.729 184.281 109.287 180.471 109.807C180.644 108.075 180.298 107.209 182.03 104.784C183.242 103.399 183.588 102.36 185.32 101.32Z" fill="#2A176E"/>
<path d="M187.226 112.75L188.438 118.466H182.723L187.226 112.75Z" fill="#2A176E"/>
<path d="M180.301 119.852H188.614V121.064L180.301 120.891V119.852Z" fill="#2A176E"/>
</svg>
